<svg width="680" height="103" viewBox="0 0 680 103" fill="none" xmlns="http://www.w3.org/2000/svg">
<g filter="url(#filter0_d_1_9)">
<path d="M8.10752 76.2374L8.13551 9.16544C8.1365 6.77611 7.07053 5.11166 4.93759 4.17211C6.64536 1.52749 8.90724 0.205761 11.7232 0.206936C16.5019 0.20893 18.89 3.15393 18.8876 9.04193L18.8596 75.9859C18.8583 79.0579 19.5401 81.2769 20.9049 82.6428C22.355 84.0087 24.7013 84.6924 27.944 84.6937L48.936 84.7025C53.6293 84.7044 57.0861 82.9139 59.3062 79.3308C61.7806 80.1852 63.0172 81.8923 63.0161 84.4523C63.0137 90.1697 58.3192 93.0264 48.9325 93.0225L27.3005 93.0134C20.6445 93.0107 15.7811 91.7286 12.7101 89.1674C9.6392 86.6061 8.105 82.2961 8.10752 76.2374ZM119.248 40.9558C115.41 36.4315 110.547 34.1682 104.659 34.1657C98.7711 34.1633 94.2049 36.2094 90.9605 40.304C87.7162 44.3133 86.0924 50.2433 86.0891 58.094C86.0849 68.2486 88.0445 75.6308 91.9679 80.2404C95.9766 84.7648 100.925 87.0282 106.813 87.0306C112.701 87.0331 117.225 84.987 120.384 80.8923C123.543 76.7976 125.124 70.8249 125.127 62.9743C125.131 52.7343 123.172 45.3948 119.248 40.9558ZM84.0504 35.6931C90.0262 29.8076 97.2381 26.8666 105.686 26.8701C114.134 26.8737 121.301 29.8633 127.186 35.8391C133.157 41.7296 136.14 50.0082 136.136 60.6748C136.132 71.2562 133.142 79.4896 127.166 85.3751C121.275 91.2607 114.106 94.2017 105.658 94.1981C97.21 94.1946 90.0006 91.2476 84.0297 85.3571C78.1442 79.4667 75.2036 71.1881 75.2081 60.5214C75.2125 49.8548 78.16 41.5787 84.0504 35.6931ZM164.718 35.8548L164.716 40.5908C168.304 31.4616 174.237 26.8987 182.514 26.9022C186.525 26.9039 189.639 27.9292 191.857 29.9781C194.075 32.027 195.183 34.4168 195.182 37.1475C195.181 39.7928 194.497 41.8405 193.131 43.2906C191.765 44.6554 190.357 45.3375 188.906 45.3369C187.456 45.3363 186.133 45.165 184.939 44.8232C185.11 43.9699 185.195 42.8606 185.196 41.4953C185.198 37.2286 183.065 35.0944 178.799 35.0926C175.983 35.0915 173.209 36.4983 170.477 39.3132C167.745 42.128 165.823 46.4366 164.712 52.2388L164.698 85.1348C164.697 87.6094 165.763 89.2739 167.896 90.1281C166.103 92.858 163.883 94.2224 161.238 94.2213C156.459 94.2193 154.071 91.2317 154.074 85.2583L154.094 36.1063C154.095 33.6317 153.029 31.9246 150.896 30.985C152.519 28.255 154.738 26.8906 157.554 26.8918C162.333 26.8938 164.721 29.8814 164.718 35.8548ZM237.914 53.6773C241.413 53.4228 243.163 51.4182 243.164 47.6635C243.166 43.8235 242.058 40.6657 239.84 38.1901C237.708 35.6292 234.679 34.348 230.754 34.3463C226.829 34.3447 223.244 36.2205 220 39.9738C216.755 43.7271 214.748 48.9316 213.977 55.5873L237.914 53.6773ZM213.719 61.0912C213.715 69.4539 215.505 75.6413 219.087 79.6535C222.755 83.6657 227.959 85.6732 234.701 85.676C241.442 85.6788 247.032 83.4625 251.471 79.027C252.751 79.7102 253.391 80.8624 253.39 82.4838C253.389 85.2998 251.34 87.9869 247.243 90.5452C243.146 93.0182 238.281 94.2535 232.649 94.2511C223.86 94.2475 216.65 91.4711 211.021 85.9221C205.391 80.3731 202.578 72.6066 202.582 62.6226C202.586 52.5532 205.619 44.1065 211.681 37.2824C217.828 30.3729 224.869 26.9199 232.805 26.9232C239.12 26.9258 244.239 29.1039 248.162 33.4576C252.171 37.8113 254.175 42.7614 254.172 48.3081C254.171 52.3188 253.06 55.305 250.84 57.2667C248.706 59.1431 245.207 60.1657 240.343 60.3343L213.719 61.0912ZM366.077 48.9948L366.062 85.2188C366.061 87.6081 367.127 89.2726 369.26 90.2121C367.723 92.9421 365.503 94.3065 362.602 94.3053C357.823 94.3033 355.435 91.3157 355.438 85.3423L355.453 49.7583C355.456 40.7983 351.533 36.3167 343.682 36.3134C339.416 36.3116 335.361 38.0593 331.52 41.5564C327.679 45.0534 325.031 49.7457 323.578 55.633L323.566 85.201C323.565 87.5904 324.673 89.2548 326.892 90.1944C325.099 92.9244 322.837 94.2887 320.106 94.2876C315.413 94.2856 313.067 91.298 313.07 85.3247L313.085 49.7407C313.088 40.7807 309.165 36.299 301.314 36.2958C297.048 36.294 292.994 37.999 289.152 41.4107C285.311 44.8224 282.663 49.3866 281.21 55.1034L281.198 85.1834C281.197 87.658 282.263 89.3225 284.396 90.1767C282.603 92.9066 280.383 94.271 277.738 94.2699C272.959 94.2679 270.571 91.2803 270.574 85.3069L270.594 36.1549C270.595 33.6803 269.529 31.9732 267.396 31.0336C269.019 28.3036 271.238 26.9392 274.054 26.9404C278.833 26.9424 281.221 29.93 281.218 35.9034L281.216 42.5594C283.436 37.9523 286.595 34.1989 290.692 31.2993C294.79 28.3997 299.398 26.951 304.518 26.9531C309.638 26.9552 313.819 28.365 317.06 31.1823C320.387 33.9997 322.433 38.2246 323.199 43.8569C325.164 38.9937 328.28 34.9843 332.548 31.8288C336.816 28.5879 341.723 26.9686 347.27 26.9709C352.902 26.9733 357.424 28.8525 360.836 32.6086C364.333 36.2794 366.08 41.7414 366.077 48.9948ZM395.983 76.7833C395.981 82.9273 399.307 86.0006 405.963 86.0034C412.705 86.0062 418.253 83.0645 422.607 77.1784L422.614 61.9464C413.568 62.4546 406.869 64.0731 402.516 66.802C398.162 69.4455 395.985 72.7726 395.983 76.7833ZM433.244 47.6148L433.229 81.6628C433.227 86.1855 435.317 88.7463 439.498 89.3454C437.875 92.6727 435.187 94.3356 431.432 94.334C426.056 94.3318 423.113 90.8746 422.604 83.9624C417.652 90.8723 410.995 94.3255 402.632 94.322C397.341 94.3198 392.99 92.8673 389.578 89.9646C386.166 87.0618 384.461 83.0505 384.463 77.9305C384.465 71.6158 387.625 66.5398 393.941 62.7024C400.343 58.7797 409.901 56.6504 422.616 56.3144L422.619 48.6344C422.621 43.3437 421.684 39.4606 419.808 36.9852C417.932 34.4244 414.946 33.1432 410.85 33.1415C406.839 33.1398 403.809 33.9918 401.76 35.6977C399.712 37.3181 398.687 39.195 398.686 41.3284C398.685 43.3764 399.282 45.0406 400.476 46.3211C398.683 47.6857 396.678 48.3675 394.459 48.3666C392.326 48.3657 390.577 47.7677 389.212 46.5724C387.847 45.3772 387.165 43.6702 387.166 41.4516C387.168 37.4409 389.473 34.0285 394.082 31.2145C398.692 28.4004 404.367 26.9947 411.108 26.9976C417.849 27.0004 423.225 28.8373 427.234 32.5083C431.243 36.094 433.246 41.1295 433.244 47.6148ZM499.081 44.6983C497.715 45.807 496.051 46.361 494.088 46.3602C492.125 46.3594 490.462 45.8467 489.097 44.8221C489.609 43.969 489.866 42.7318 489.866 41.1104C489.867 39.4891 488.886 37.91 486.924 36.3732C484.962 34.8364 482.019 34.0671 478.093 34.0655C474.168 34.0639 471.053 34.9586 468.748 36.7496C466.443 38.4553 465.29 40.5028 465.289 42.8922C465.288 45.2815 466.568 47.458 469.127 49.4218C471.686 51.3002 474.757 53.0508 478.341 54.6736C481.924 56.2111 485.507 57.8766 489.09 59.6701C492.759 61.4636 495.873 63.7689 498.432 66.586C500.99 69.3177 502.269 72.3903 502.268 75.8036C502.266 80.8383 499.875 85.1893 495.094 88.8566C490.314 92.5239 484.255 94.3561 476.916 94.353C469.577 94.35 463.605 92.9395 458.998 90.1215C454.391 87.3036 452.088 83.676 452.09 79.2387C452.091 76.5933 452.818 74.5456 454.269 73.0956C455.806 71.5602 457.598 70.793 459.646 70.7938C461.779 70.7947 463.443 71.5207 464.637 72.9719C463.442 74.5927 462.843 76.5552 462.842 78.8592C462.842 81.1632 463.993 83.169 466.296 84.8766C468.685 86.4989 472.098 87.311 476.535 87.3129C481.058 87.3148 484.642 86.3776 487.288 84.5014C490.02 82.5398 491.386 80.1937 491.387 77.4631C491.388 74.6471 490.109 72.2145 487.55 70.1655C485.076 68.1164 482.048 66.3658 478.464 64.9137C474.881 63.3762 471.255 61.796 467.586 60.1731C464.003 58.465 460.932 56.3303 458.373 53.7693C455.899 51.2082 454.663 48.3064 454.665 45.0637C454.667 39.9437 456.887 35.678 461.326 32.2665C465.765 28.7697 471.184 27.0226 477.584 27.0253C484.069 27.028 489.616 28.225 494.223 30.6162C498.83 32.9222 501.132 35.9951 501.131 39.8351C501.215 41.8832 500.532 43.5042 499.081 44.6983ZM531.846 36.3919L531.829 76.9679C531.828 80.1253 532.424 82.3868 533.618 83.7527C534.898 85.1185 536.946 85.8021 539.762 85.8032C545.052 85.8054 550.045 83.5462 554.74 79.0255C556.191 79.7941 556.916 81.0317 556.915 82.7384C556.914 85.6397 555.035 88.3269 551.28 90.8C547.524 93.1878 542.915 94.3806 537.454 94.3783C526.531 94.3737 521.072 88.6968 521.077 77.3474L521.094 36.3874C514.182 36.1286 510.727 34.4631 510.728 31.3911C510.729 29.7698 511.241 28.5327 512.266 27.6798C515.252 28.1077 517.556 28.322 519.178 28.3226L521.098 28.3234L521.102 17.9554C521.103 15.5661 520.037 13.859 517.904 12.8341C519.612 10.1895 521.831 8.86775 524.562 8.86889C529.426 8.87092 531.856 11.8586 531.854 17.8319L531.85 28.3279L553.354 28.3369C553.695 28.9344 553.865 29.6598 553.865 30.5131C553.863 34.4384 547.121 36.3983 533.638 36.3927L531.846 36.3919ZM602.039 53.8292C605.538 53.5747 607.288 51.5701 607.289 47.8154C607.291 43.9754 606.183 40.8176 603.965 38.342C601.833 35.7811 598.804 34.4999 594.879 34.4982C590.954 34.4966 587.369 36.3724 584.125 40.1257C580.88 43.8791 578.873 49.0836 578.102 55.7392L602.039 53.8292ZM577.844 61.2431C577.84 69.6058 579.63 75.7932 583.212 79.8054C586.88 83.8176 592.084 85.8251 598.826 85.8279C605.567 85.8307 611.157 83.6144 615.596 79.1789C616.876 79.8621 617.516 81.0143 617.515 82.6357C617.514 85.4517 615.465 88.1388 611.368 90.6971C607.271 93.1701 602.406 94.4054 596.774 94.403C587.985 94.3994 580.775 91.623 575.145 86.074C569.516 80.525 566.703 72.7585 566.707 62.7745C566.711 52.7051 569.744 44.2584 575.806 37.4343C581.953 30.5248 588.994 27.0718 596.93 27.0751C603.245 27.0777 608.364 29.2559 612.287 33.6095C616.296 37.9632 618.299 42.9133 618.297 48.46C618.296 52.4707 617.185 55.4569 614.965 57.4186C612.831 59.2951 609.332 60.3176 604.468 60.4862L577.844 61.2431ZM645.343 36.0553L645.341 40.7913C648.929 31.6621 654.862 27.0993 663.139 27.1027C667.15 27.1044 670.264 28.1297 672.482 30.1786C674.7 32.2275 675.808 34.6173 675.807 37.348C675.806 39.9933 675.122 42.041 673.756 43.4911C672.39 44.8559 670.982 45.538 669.531 45.5374C668.081 45.5368 666.758 45.3656 665.564 45.0237C665.735 44.1705 665.82 43.0612 665.821 41.6958C665.823 37.4292 663.69 35.2949 659.424 35.2932C656.608 35.292 653.834 36.6988 651.102 39.5137C648.37 42.3285 646.448 46.6371 645.337 52.4393L645.323 85.3353C645.322 87.8099 646.388 89.4744 648.521 90.3286C646.728 93.0585 644.508 94.4229 641.863 94.4218C637.084 94.4198 634.696 91.4322 634.699 85.4588L634.719 36.3068C634.72 33.8322 633.654 32.1251 631.521 31.1855C633.144 28.4555 635.363 27.0911 638.179 27.0923C642.958 27.0943 645.346 30.0819 645.343 36.0553Z" fill="#FFE6FF"/>
</g>
<defs>
<filter id="filter0_d_1_9" x="0.900055" y="0.204102" width="678.922" height="102.232" filterUnits="userSpaceOnUse" color-interpolation-filters="sRGB">
<feFlood flood-opacity="0" result="BackgroundImageFix"/>
<feColorMatrix in="SourceAlpha" type="matrix" values="0 0 0 0 0 0 0 0 0 0 0 0 0 0 0 0 0 0 127 0" result="hardAlpha"/>
<feOffset dy="4"/>
<feGaussianBlur stdDeviation="2"/>
<feComposite in2="hardAlpha" operator="out"/>
<feColorMatrix type="matrix" values="0 0 0 0 0 0 0 0 0 0 0 0 0 0 0 0 0 0 0.25 0"/>
<feBlend mode="normal" in2="BackgroundImageFix" result="effect1_dropShadow_1_9"/>
<feBlend mode="normal" in="SourceGraphic" in2="effect1_dropShadow_1_9" result="shape"/>
</filter>
</defs>
</svg>
